<?xml version="1.0" encoding="UTF-8" standalone="no"?>
<svg
   width="300mm"
   height="400mm"
   viewBox="0 0 300 400"
   version="1.1"
   id="svg205"
   inkscape:version="1.1.2 (0a00cf5339, 2022-02-04)"
   sodipodi:docname="syringe-holder-v4-12s.svg"
   xmlns:inkscape="http://www.inkscape.org/namespaces/inkscape"
   xmlns:sodipodi="http://sodipodi.sourceforge.net/DTD/sodipodi-0.dtd"
   xmlns="http://www.w3.org/2000/svg"
   xmlns:svg="http://www.w3.org/2000/svg"
   xmlns:rdf="http://www.w3.org/1999/02/22-rdf-syntax-ns#"
   xmlns:cc="http://creativecommons.org/ns#"
   xmlns:dc="http://purl.org/dc/elements/1.1/">
  <defs
     id="defs199" />
  <sodipodi:namedview
     id="base"
     pagecolor="#ffffff"
     bordercolor="#666666"
     borderopacity="1.0"
     inkscape:pageopacity="0.0"
     inkscape:pageshadow="2"
     inkscape:zoom="0.77059896"
     inkscape:cx="838.30895"
     inkscape:cy="439.2687"
     inkscape:document-units="mm"
     inkscape:current-layer="layer1"
     inkscape:document-rotation="0"
     showgrid="false"
     inkscape:window-width="2560"
     inkscape:window-height="1411"
     inkscape:window-x="0"
     inkscape:window-y="0"
     inkscape:window-maximized="1"
     inkscape:pagecheckerboard="0"
     inkscape:lockguides="true" />
  <metadata
     id="metadata202">
    <rdf:RDF>
      <cc:Work
         rdf:about="">
        <dc:format>image/svg+xml</dc:format>
        <dc:type
           rdf:resource="http://purl.org/dc/dcmitype/StillImage" />
      </cc:Work>
    </rdf:RDF>
  </metadata>
  <g
     inkscape:label="Layer 1"
     inkscape:groupmode="layer"
     id="layer1">
    <path
       id="path837-3"
       style="fill:none;stroke:#000000;stroke-width:0.1;stroke-linecap:butt;stroke-linejoin:miter;stroke-miterlimit:4;stroke-dasharray:none;stroke-opacity:1"
       d="M 235.60698,6.7190755 V 4.7985912 C 235.47846,1.661772 235.35512,1.4712683 232.37593,1.4649143 h -31.18762 c -3.21034,0.08978 -3.43929,0.4024557 -3.48133,3.4826379 v 1.7715233 l 9.90214,-0.0025 m -104.92344,0.0025 V 4.7985912 C 102.55716,1.661773 102.43382,1.4712693 99.454636,1.4649153 H 68.267029 c -3.210341,0.08978 -3.439285,0.4024557 -3.481328,3.4826379 v 1.7715233 l 9.930083,1e-6 M 288.06388,102.50081 h 5.05673 l 0.016,9.35148 c 4.07434,0.0159 5.50702,0.18118 5.55025,-2.89747 0.0417,-2.97127 -0.0735,-11.893238 -0.15636,-23.487123 -0.34052,-2.79535 -0.90177,-2.76759 -3.32048,-3.01973 h -7.0859 m -3e-5,-50.57904 h 5.05673 l 0.016,9.35147 c 4.07434,0.0159 5.50702,0.18118 5.55025,-2.89747 0.0417,-2.97127 -0.0735,-11.89322 -0.15636,-23.48711 -0.34052,-2.795351 -0.90177,-2.767591 -3.32048,-3.019731 h -7.02917 M 12.02012,102.44883 H 7.0124168 l -0.016,9.35148 c -4.0743405,0.0159 -6.03619057,0.18118 -6.07942057,-2.89747 -0.0417,-2.97127 0.0735,-11.893238 0.15635997,-23.487123 0.34052,-2.79535 1.4309401,-2.76759 3.8496501,-3.01973 H 11.95988 m -0.0077,-70.576911 h 62.733493 l 0.03008,-5.0999985 m 27.969897,0 V 11.819077 H 207.60912 V 6.7166165 m 27.99786,0.0025 0.002,5.1000015 h 52.57723 m -0.0627,20.049851 3e-5,50.57904 m 2e-5,19.997861 10e-6,9.41453 -276.104037,0.003 1e-5,-9.41453 m 2e-5,-19.997861 2e-5,-50.57905 m 0,0 H 7.0119868 l -0.016,9.35147 c -4.0743405,0.0159 -6.03619057,0.18118 -6.07942057,-2.89747 -0.0417,-2.97127 0.0735,-11.89322 0.15635997,-23.48711 0.34052,-2.795351 1.4309401,-2.767591 3.8496501,-3.019731 h 7.0296577"
       sodipodi:nodetypes="cccccccccccccccccsccccccsccccccscccccccccccccccccccccccccccc" />
    <g
       id="g4839"
       transform="translate(-1.3825832,-20.68535)">
      <g
         id="g3666">
        <path
           id="rect10-4"
           style="fill:#ffffff;fill-rule:evenodd;stroke:#000000;stroke-width:0.376538;stroke-miterlimit:4;stroke-dasharray:none"
           d="m 118.19922,506.79102 0.006,0.13867 h 67.06445 l 0.008,-0.13867 z m 67.07031,0.13867 -1.30664,21.16797 1.31445,64.65625 c 0.0151,0.41646 0.0215,0.83323 0.0215,1.25 3.8e-4,18.68273 -15.1023,33.82823 -33.73242,33.82812 -18.6301,1.1e-4 -33.73281,-15.14539 -33.73243,-33.82812 9.5e-4,-0.15572 0.003,-0.31105 0.008,-0.4668 h -0.0254 l 1.33007,-65.43945 -0.9414,-21.16797 H 12.5625 V 846.5293 h 105.64258 l 0.9414,-21.16602 -1.33007,-65.43945 h 0.0254 c -0.005,-0.15576 -0.007,-0.31108 -0.008,-0.4668 -3.8e-4,-18.68273 15.10233,-33.82824 33.73243,-33.82812 18.63012,-1.2e-4 33.7328,15.14539 33.73242,33.82812 0,0.41677 -0.006,0.83354 -0.0215,1.25 l -1.31445,64.65625 1.30664,21.16602 h 100.25391 l 0.9414,-21.16602 -1.33007,-65.43945 h 0.0254 c -0.005,-0.15576 -0.007,-0.31108 -0.008,-0.4668 -3.8e-4,-18.68273 15.10233,-33.82824 33.73243,-33.82812 18.63012,-1.2e-4 33.7328,15.14539 33.73242,33.82812 0,0.41677 -0.006,0.83354 -0.0215,1.25 l -1.31445,64.65625 1.30664,21.16602 H 452.8418 l 0.9414,-21.16602 -1.33008,-65.43945 h 0.0254 c -0.005,-0.15576 -0.007,-0.31108 -0.008,-0.4668 -3.7e-4,-18.68273 15.10234,-33.82824 33.73242,-33.82812 18.63013,-1.2e-4 33.7328,15.14539 33.73243,33.82812 0,0.41677 -0.006,0.83354 -0.0215,1.25 l -1.31445,64.65625 1.30664,21.16602 h 100.25391 l 0.9414,-21.16602 -1.33008,-65.43945 h 0.0254 c -0.005,-0.15576 -0.005,-0.31108 -0.006,-0.4668 -3.8e-4,-18.68273 15.10233,-33.82824 33.73242,-33.82812 18.63012,-1.2e-4 33.7328,15.14539 33.73242,33.82812 0,0.41677 -0.008,0.83354 -0.0234,1.25 l -1.31445,64.65625 1.30664,21.16602 h 100.25391 l 0.9414,-21.16602 -1.33008,-65.43945 h 0.0274 c -0.005,-0.15576 -0.007,-0.31108 -0.008,-0.4668 -3.8e-4,-18.68273 15.10233,-33.82824 33.73242,-33.82812 18.63012,-1.2e-4 33.7328,15.14539 33.73242,33.82812 0,0.41677 -0.008,0.83354 -0.0234,1.25 l -1.31445,64.65625 1.30664,21.16602 h 100.25391 l 0.9414,-21.16602 -1.33008,-65.43945 h 0.0274 c -0.005,-0.15576 -0.007,-0.31108 -0.008,-0.4668 -3.7e-4,-18.68273 15.10234,-33.82824 33.73243,-33.82812 18.63016,-1.2e-4 33.73286,15.14539 33.73246,33.82812 0,0.41677 -0.01,0.83354 -0.024,1.25 l -1.3144,64.65625 1.3066,21.16602 h 104.2383 l 1.0449,-339.59961 h -105.2832 l -1.3066,21.16797 1.3144,64.65625 c 0.015,0.41646 0.024,0.83323 0.024,1.25 4e-4,18.68273 -15.1023,33.82823 -33.73246,33.82812 -18.63009,1.1e-4 -33.7328,-15.14539 -33.73243,-33.82812 9.5e-4,-0.15572 0.003,-0.31105 0.008,-0.4668 h -0.0274 l 1.33008,-65.43945 -0.9414,-21.16797 H 854.54297 l -1.30664,21.16797 1.31445,64.65625 c 0.0151,0.41646 0.0234,0.83323 0.0234,1.25 3.8e-4,18.68273 -15.1023,33.82823 -33.73242,33.82812 -18.63009,1.1e-4 -33.7328,-15.14539 -33.73242,-33.82812 9.4e-4,-0.15572 0.003,-0.31105 0.008,-0.4668 h -0.0274 l 1.33008,-65.43945 -0.9414,-21.16797 H 687.22461 l -1.30664,21.16797 1.31445,64.65625 c 0.0151,0.41646 0.0234,0.83323 0.0234,1.25 3.8e-4,18.68273 -15.1023,33.82823 -33.73242,33.82812 -18.63009,1.1e-4 -33.7328,-15.14539 -33.73242,-33.82812 9.4e-4,-0.15572 10e-4,-0.31105 0.006,-0.4668 h -0.0254 l 1.33008,-65.43945 -0.9414,-21.16797 H 519.90625 l -1.30664,21.16797 1.31445,64.65625 c 0.0151,0.41646 0.0215,0.83323 0.0215,1.25 3.7e-4,18.68273 -15.1023,33.82823 -33.73243,33.82812 -18.63008,1.1e-4 -33.73279,-15.14539 -33.73242,-33.82812 9.5e-4,-0.15572 0.003,-0.31105 0.008,-0.4668 h -0.0254 l 1.33008,-65.43945 -0.9414,-21.16797 h -20.0625 -80.19141 l -1.30664,21.16797 1.31445,64.65625 c 0.0151,0.41646 0.0215,0.83323 0.0215,1.25 3.8e-4,18.68273 -15.1023,33.82823 -33.73242,33.82812 -18.6301,1.1e-4 -33.73281,-15.14539 -33.73243,-33.82812 9.4e-4,-0.15572 0.003,-0.31105 0.008,-0.4668 h -0.0254 l 1.33007,-65.43945 -0.9414,-21.16797 z m 100.25391,0 h 67.06445 l 0.008,-0.13867 h -67.07812 z m 167.31836,0 h 67.06445 l 0.008,-0.13867 h -67.07812 z m 167.31836,0 h 67.06445 l 0.008,-0.13867 H 620.1543 Z m 167.31836,0 h 67.06445 l 0.008,-0.13867 h -67.07812 z m 167.31836,0 h 67.06442 l 0.01,-0.13867 h -67.07808 z m 67.06442,339.59961 h -67.06442 l -0.006,0.14062 h 67.07812 z m -167.31833,0 h -67.06445 l -0.006,0.14062 h 67.07812 z m -167.31836,0 h -67.06445 l -0.006,0.14062 h 67.07812 z m -167.31836,0 h -65.04297 -2.02148 l -0.006,0.14062 h 67.07812 z m -167.31836,0 h -67.06445 l -0.006,0.14062 h 67.07812 z m -167.31836,0 h -67.06445 l -0.006,0.14062 h 67.07812 z"
           transform="scale(0.26458333)" />
      </g>
      <rect
         style="fill:#ffffff;stroke:#000000;stroke-width:0.0996256;stroke-miterlimit:4;stroke-dasharray:none"
         id="rect1178-0"
         width="38.112999"
         height="5.1000214"
         x="65.312675"
         y="176.5433" />
      <rect
         style="fill:#ffffff;stroke:#000000;stroke-width:0.0996256;stroke-miterlimit:4;stroke-dasharray:none"
         id="rect1178-2-3"
         width="38.112869"
         height="5.1000218"
         x="198.11156"
         y="176.5433" />
    </g>
  </g>
</svg>
